<svg width="390" height="369" viewBox="0 0 390 369" fill="none" xmlns="http://www.w3.org/2000/svg">
<path d="M87 245.5L388 3.5L135.5 282L173.5 309L143 315L76 329.5L87 245.5Z" fill="#042813"/>
<path d="M262.5 366L224 342.5L387.5 3L262.5 366Z" fill="#0B3D20"/>
<path d="M135.5 281.5L387 2.5L222.5 341.5L135.5 281.5Z" fill="#178043"/>
<path d="M388 2L4 181L86 245.5L388 2Z" fill="#178043"/>
<path d="M76 329.5L87 245.5L388 3.5L135.5 282M76 329.5L135.5 282M76 329.5L143 315L173.5 309L135.5 282M224 342.5L262.5 366L387.5 3L224 342.5ZM387 2.5L135.5 281.5L222.5 341.5L387 2.5ZM4 181L388 2L86 245.5L4 181Z" stroke="black" stroke-width="4"/>
<path d="M136.5 283.5L80 328L172.5 308L136.5 283.5Z" fill="#0B3D20" stroke="black"/>
</svg>
