<svg width="390" height="369" viewBox="0 0 390 369" fill="none" xmlns="http://www.w3.org/2000/svg">
<path d="M87 245.5L388 3.5L135.5 282L171.5 307.5L143 315L76 329.5L87 245.5Z" fill="#0D2647"/>
<path d="M262.5 366L224 342.5L387.5 3L262.5 366Z" fill="#17509A"/>
<path d="M135.5 281.5L387 2.5L222.5 341.5L135.5 281.5Z" fill="#3278D4"/>
<path d="M388 2L4 181L86 245.5L388 2Z" fill="#3278D4"/>
<path d="M76 329.5L87 245.5L388 3.5L135.5 282M76 329.5L135.5 282M76 329.5L143 315L171.5 307.5L135.5 282M224 342.5L262.5 366L387.5 3L224 342.5ZM387 2.5L135.5 281.5L222.5 341.5L387 2.5ZM4 181L388 2L86 245.5L4 181Z" stroke="black" stroke-width="4"/>
</svg>
